<?xml version="1.0" standalone="yes"?>
<svg xmlns="http://www.w3.org/2000/svg">
<path style="fill:#66768a; stroke:none;" d="M0 0L0 96L113 96L113 0L0 0z"/>
<path style="fill:#808d9d; stroke:none;" d="M44 23C45.769 23.7789 47.0359 23.9124 49 24C47.231 23.2211 45.9641 23.0876 44 23z"/>
<path style="fill:#aeb5be; stroke:none;" d="M43 24C44.8084 24.9673 46.4176 25.6984 48 27C49.2346 23.7248 45.4989 24.0414 43 24z"/>
<path style="fill:#a4adb8; stroke:none;" d="M42 25L42 28C42.6961 26.4463 42.6961 26.5537 42 25z"/>
<path style="fill:#f1f1f1; stroke:none;" d="M43 25C42.2948 33.0878 39.3519 40.8034 39 49L49 48C49.328 58.078 56.2593 56.3324 64 56C64.6368 51.271 65.9003 46.8041 66 42C62.9605 42.7243 60.1217 42.9738 57 43L57 46L61 46C59.2039 54.7901 53.2387 51.3511 53 44C49.922 44.0636 47.0251 44.4379 44 45C44.552 38.2421 46.6321 31.631 48 25L43 25z"/>
<path style="fill:#8794a2; stroke:none;" d="M41 27L41 30C41.6961 28.4463 41.6961 28.5537 41 27z"/>
<path style="fill:#b9c0c7; stroke:none;" d="M47 27L47 30C47.6961 28.4463 47.6961 28.5537 47 27z"/>
<path style="fill:#ced3d8; stroke:none;" d="M42.3333 28.6667C42.2778 28.7222 42.2222 29.7778 42.6667 29.3333C42.7222 29.2778 42.7778 28.2222 42.3333 28.6667z"/>
<path style="fill:#8390a0; stroke:none;" d="M66 28C67.8128 29.2654 68.8827 30.1021 70 32C70.683 30.494 70.8259 29.6852 71 28L66 28z"/>
<path style="fill:#97a1af; stroke:none;" d="M63 29C64.2484 29.6848 64.5484 29.7488 66 30C64.7516 29.3152 64.4516 29.2512 63 29z"/>
<path style="fill:#bdc3cb; stroke:none;" d="M66 29L69 32C69.951 29.4934 68.348 29.2942 66 29z"/>
<path style="fill:#b1b8c2; stroke:none;" d="M41 30L41 33C41.6961 31.4463 41.6961 31.5537 41 30z"/>
<path style="fill:#828e9f; stroke:none;" d="M47 30L47 34C47.7102 32.2405 47.7102 31.7595 47 30z"/>
<path style="fill:#afb6c0; stroke:none;" d="M56 30C57.506 30.683 58.3148 30.8259 60 31C58.494 30.317 57.6852 30.1741 56 30z"/>
<path style="fill:#f1f1f1; stroke:none;" d="M51 40C56.0918 39.1312 58.5441 34.6094 64 34L64 38L68 38C68.1174 35.27 68.4992 32.6858 69 30C60.9328 30.0053 51.8799 30.3893 51 40z"/>
<path style="fill:#d0d4d9; stroke:none;" d="M46.3333 31.6667C46.2777 31.7223 46.2222 32.7778 46.6667 32.3333C46.7222 32.2778 46.7778 31.2222 46.3333 31.6667z"/>
<path style="fill:#d3d7dc; stroke:none;" d="M54 31C55.506 31.683 56.3148 31.8259 58 32C56.494 31.317 55.6852 31.1741 54 31z"/>
<path style="fill:#acb4be; stroke:none;" d="M53 32L54 33L53 32z"/>
<path style="fill:#c7ccd1; stroke:none;" d="M68 32L68 37C68.8299 34.9695 68.8299 34.0305 68 32z"/>
<path style="fill:#919daa; stroke:none;" d="M69.3333 32.6667C69.2778 32.7222 69.2222 33.7778 69.6667 33.3333C69.7222 33.2778 69.7778 32.2222 69.3333 32.6667z"/>
<path style="fill:#788697; stroke:none;" d="M40 33C39.3521 35.7092 39.0583 38.2155 39 41C40.2783 38.3387 40.8706 35.8345 40 33z"/>
<path style="fill:#adb4be; stroke:none;" d="M46 33L46 36C46.6961 34.4463 46.6961 34.5537 46 33z"/>
<path style="fill:#bfc5cc; stroke:none;" d="M51.3333 34.6667C51.2778 34.7222 51.2222 35.7778 51.6667 35.3333C51.7222 35.2778 51.7778 34.2222 51.3333 34.6667z"/>
<path style="fill:#ced2d7; stroke:none;" d="M59 34C60.7691 34.7789 62.0359 34.9124 64 35C62.231 34.2211 60.9641 34.0876 59 34z"/>
<path style="fill:#9ba5b1; stroke:none;" d="M50 35L50 38C50.6961 36.4463 50.6961 36.5537 50 35z"/>
<path style="fill:#a9b2bb; stroke:none;" d="M56 38C58.963 36.801 60.8498 36.4482 64 37C61.4415 34.0757 57.9871 34.9346 56 38z"/>
<path style="fill:#c3c8ce; stroke:none;" d="M40.3333 36.6667C40.2778 36.7222 40.2222 37.7778 40.6667 37.3333C40.7222 37.2778 40.7778 36.2222 40.3333 36.6667z"/>
<path style="fill:#cfd3d8; stroke:none;" d="M45 36L45 39C45.6961 37.4463 45.6961 37.5537 45 36z"/>
<path style="fill:#ced2d7; stroke:none;" d="M63 37C64.5398 38.8031 65.5975 38.832 68 39C66.3518 38.0759 64.8251 37.5506 63 37z"/>
<path style="fill:#8894a3; stroke:none;" d="M68.3333 37.6667C68.2778 37.7222 68.2222 38.7778 68.6667 38.3333C68.7222 38.2778 68.7778 37.2222 68.3333 37.6667z"/>
<path style="fill:#c7ccd2; stroke:none;" d="M50 38C50.6544 41.0539 52.0066 40.9358 55 41L50 38z"/>
<path style="fill:#9da7b2; stroke:none;" d="M55.3333 38.6667C55.2778 38.7222 55.2222 39.7778 55.6667 39.3333C55.7222 39.2778 55.7778 38.2222 55.3333 38.6667z"/>
<path style="fill:#a9b1bc; stroke:none;" d="M45 39L45 42C45.6961 40.4463 45.6961 40.5537 45 39z"/>
<path style="fill:#8693a2; stroke:none;" d="M49.3333 39.6667C49.2778 39.7222 49.2222 40.7778 49.6667 40.3333C49.7222 40.2778 49.7778 39.2222 49.3333 39.6667z"/>
<path style="fill:#bec3ca; stroke:none;" d="M44 40C44.0642 42.9934 43.9461 44.3456 47 45L44 40z"/>
<path style="fill:#bac0c9; stroke:none;" d="M39 41L39 44C39.6961 42.4463 39.6961 42.5537 39 41z"/>
<path style="fill:#7c899a; stroke:none;" d="M50 41C51.7885 42.4215 52.7058 42.6974 55 43C53.2115 41.5785 52.2943 41.3026 50 41z"/>
<path style="fill:#96a0ae; stroke:none;" d="M60 41C61.2483 41.6848 61.5484 41.7488 63 42C61.7517 41.3152 61.4516 41.2512 60 41z"/>
<path style="fill:#b8bec7; stroke:none;" d="M63.6667 41.3333C63.2222 41.7778 64.2778 41.7222 64.3333 41.6667C64.7778 41.2222 63.7222 41.2778 63.6667 41.3333z"/>
<path style="fill:#e2e4e5; stroke:none;" d="M65 41L66 44C66.6848 42.7517 66.7488 42.4516 67 41L65 41z"/>
<path style="fill:#909caa; stroke:none;" d="M38.3333 42.6667C38.2778 42.7222 38.2222 43.7778 38.6667 43.3333C38.7222 43.2778 38.7778 42.2222 38.3333 42.6667z"/>
<path style="fill:#8e99a8; stroke:none;" d="M45 42C46.734 44.0034 48.3549 43.923 51 44C49.0593 43.0491 47.1024 42.5606 45 42z"/>
<path style="fill:#97a2af; stroke:none;" d="M56 42C56.0135 45.1942 55.5971 47.2708 59 48L56 42z"/>
<path style="fill:#e6e7e9; stroke:none;" d="M57 42C59.6127 43.0977 62.1645 42.9928 65 43C62.3873 41.9023 59.8355 42.0072 57 42z"/>
<path style="fill:#a7afba; stroke:none;" d="M51 43L54 46C54.951 43.4934 53.348 43.2942 51 43z"/>
<path style="fill:#adb5bf; stroke:none;" d="M38 44L38 47C38.6961 45.4463 38.6961 45.5537 38 44z"/>
<path style="fill:#d2d6da; stroke:none;" d="M53.3333 44.6667C53.2778 44.7222 53.2222 45.7778 53.6667 45.3333C53.7222 45.2778 53.7778 44.2222 53.3333 44.6667z"/>
<path style="fill:#bdc2ca; stroke:none;" d="M66 44L66 47C66.6961 45.4463 66.6961 45.5537 66 44z"/>
<path style="fill:#b0b7c0; stroke:none;" d="M53 46L53 51C53.8299 48.9695 53.8299 48.0305 53 46z"/>
<path style="fill:#c6ccd1; stroke:none;" d="M57 46C58.506 46.683 59.3148 46.8259 61 47C59.494 46.317 58.6852 46.1741 57 46z"/>
<path style="fill:#d8dbde; stroke:none;" d="M38 47C38.4057 49.0924 38.2167 49.0198 40 50C39.3087 48.6116 39.0154 48.1394 38 47z"/>
<path style="fill:#8d98a7; stroke:none;" d="M60 47L60 50C60.6961 48.4463 60.6961 48.5537 60 47z"/>
<path style="fill:#8b96a6; stroke:none;" d="M37 48C37.4825 50.364 37.636 50.5175 40 51C39.0275 49.7301 38.2699 48.9725 37 48z"/>
<path style="fill:#c4c9cf; stroke:none;" d="M44 48C45.6482 48.9241 47.1749 49.4494 49 50C47.4602 48.1969 46.4025 48.168 44 48z"/>
<path style="fill:#c7ccd3; stroke:none;" d="M65 48L65 51C65.6961 49.4463 65.6961 49.5537 65 48z"/>
<path style="fill:#bdc3cb; stroke:none;" d="M40 49C41.2483 49.6848 41.5484 49.7488 43 50C41.7516 49.3152 41.4516 49.2512 40 49z"/>
<path style="fill:#8a96a3; stroke:none;" d="M43 49C44.7691 49.7789 46.0359 49.9124 48 50C46.231 49.2211 44.9641 49.0876 43 49z"/>
<path style="fill:#a8b1bc; stroke:none;" d="M48 50L48 53C48.6961 51.4463 48.6961 51.5537 48 50z"/>
<path style="fill:#9fa9b5; stroke:none;" d="M65.3333 51.6667C65.2778 51.7222 65.2222 52.7778 65.6667 52.3333C65.7222 52.2778 65.7778 51.2222 65.3333 51.6667z"/>
<path style="fill:#acb3bd; stroke:none;" d="M55 52C56.5061 52.683 57.3148 52.8259 59 53C57.4939 52.317 56.6852 52.1741 55 52z"/>
<path style="fill:#cbcfd4; stroke:none;" d="M64 52L64 56C64.7102 54.2405 64.7102 53.7595 64 52z"/>
<path style="fill:#7c899a; stroke:none;" d="M48 53C48.6836 54.58 48.8048 54.7772 50 56C49.3164 54.42 49.1952 54.2228 48 53z"/>
<path style="fill:#83909f; stroke:none;" d="M65.3333 53.6667C65.2778 53.7222 65.2222 54.7778 65.6667 54.3333C65.7222 54.2778 65.7778 53.2222 65.3333 53.6667z"/>
<path style="fill:#b2b9c3; stroke:none;" d="M50 55L51 56L50 55z"/>
<path style="fill:#c7ccd2; stroke:none;" d="M51.6667 56.3333C51.2222 56.7778 52.2778 56.7222 52.3333 56.6667C52.7778 56.2222 51.7222 56.2778 51.6667 56.3333z"/>
<path style="fill:#d2d6da; stroke:none;" d="M58 56C59.2483 56.6848 59.5484 56.7488 61 57C59.7516 56.3152 59.4516 56.2512 58 56z"/>
<path style="fill:#adb5be; stroke:none;" d="M61 56C62.2483 56.6848 62.5484 56.7488 64 57C62.7516 56.3152 62.4516 56.2512 61 56z"/>
<path style="fill:#a4adb8; stroke:none;" d="M52 57C54.0521 57.8742 55.7472 57.9528 58 58C55.9479 57.1258 54.2528 57.0472 52 57z"/>
<path style="fill:#818c9d; stroke:none;" d="M36 60L36 66C36.7789 64.231 36.9124 62.9641 37 61L44 61C41.3873 59.9023 38.8355 60.0072 36 60z"/>
<path style="fill:#949fac; stroke:none;" d="M44 60C45.769 60.7789 47.0359 60.9124 49 61C47.231 60.2211 45.9641 60.0876 44 60z"/>
<path style="fill:#939fac; stroke:none;" d="M51 60L51 66C51.7789 64.231 51.9124 62.9641 52 61L70 61L70 66C70.8742 63.9479 70.9528 62.2528 71 60L51 60z"/>
<path style="fill:#919daa; stroke:none;" d="M37 61L37 67L49 67C47.7516 66.3152 47.4516 66.2512 46 66C46.9857 64.5215 47 64.7968 47 63L43 65L43 61C41.5785 62.7885 41.3026 63.7057 41 66C40.4382 64.1994 40.1759 62.8782 40 61L37 61z"/>
<path style="fill:#b7bec6; stroke:none;" d="M40 61L40 66C40.9241 64.3519 41.4494 62.8251 42 61L40 61z"/>
<path style="fill:#b3bac3; stroke:none;" d="M43 61L43 65L47 63L46 66C49.0539 65.3456 48.9358 63.9934 49 61L43 61z"/>
<path style="fill:#7b8899; stroke:none;" d="M49 61L49 67L40 67C42.0521 67.8742 43.7472 67.9528 46 68C43.271 68.8102 40.8495 68.9791 38 69C44.2023 71.6026 53.2977 70 60 70L60 68C55.0707 67.3183 51.8387 66.2628 51 61L49 61z"/>
<path style="fill:#b5bcc5; stroke:none;" d="M52 61L52 66L70 66L70 61L66 61L67 65C64.9653 63.7741 64.6735 63.2974 64 61L52 61z"/>
<path style="fill:#c9ced3; stroke:none;" d="M64 61C64.2107 63.7386 64.3025 64.422 67 65C66.2235 62.8683 65.8698 62.2292 64 61z"/>
<path style="fill:#8c98a6; stroke:none;" d="M52 66C57.2224 68.1914 64.3678 67 70 67C64.7776 64.8086 57.6322 66 52 66z"/>
<path style="fill:#8490a0; stroke:none;" d="M38 67C40.104 69.4089 42.9059 68.9897 46 69C43.4651 67.8606 40.7443 67.5182 38 67z"/>
<path style="fill:#7e8b9c; stroke:none;" d="M63 67L63 70L70 70C68.1767 67.1822 66.2845 67.1049 63 67z"/>
</svg>
